<?xml version="1.0" encoding="UTF-8" standalone="no"?>
<!-- Created with Inkscape (http://www.inkscape.org/) -->

<svg
   xmlns:dc="http://purl.org/dc/elements/1.1/"
   xmlns:cc="http://creativecommons.org/ns#"
   xmlns:rdf="http://www.w3.org/1999/02/22-rdf-syntax-ns#"
   xmlns:svg="http://www.w3.org/2000/svg"
   xmlns="http://www.w3.org/2000/svg"
   xmlns:sodipodi="http://sodipodi.sourceforge.net/DTD/sodipodi-0.dtd"
   xmlns:inkscape="http://www.inkscape.org/namespaces/inkscape"
   id="svg2"
   version="1.1"
   inkscape:version="0.47 r22583"
   width="499.99997"
   height="597.42487"
   sodipodi:docname="com_italia.gif">
  <metadata
     id="metadata8">
    <rdf:RDF>
      <cc:Work
         rdf:about="">
        <dc:format>image/svg+xml</dc:format>
        <dc:type
           rdf:resource="http://purl.org/dc/dcmitype/StillImage" />
        <dc:title></dc:title>
      </cc:Work>
    </rdf:RDF>
  </metadata>
  <defs
     id="defs6">
    <inkscape:perspective
       sodipodi:type="inkscape:persp3d"
       inkscape:vp_x="0 : 0.5 : 1"
       inkscape:vp_y="0 : 1000 : 0"
       inkscape:vp_z="1 : 0.5 : 1"
       inkscape:persp3d-origin="0.5 : 0.33333333 : 1"
       id="perspective10" />
  </defs>
  <sodipodi:namedview
     pagecolor="#ffffff"
     bordercolor="#666666"
     borderopacity="1"
     objecttolerance="10"
     gridtolerance="10"
     guidetolerance="10"
     inkscape:pageopacity="0"
     inkscape:pageshadow="2"
     inkscape:window-width="1024"
     inkscape:window-height="714"
     id="namedview4"
     showgrid="false"
     inkscape:zoom="0.82003538"
     inkscape:cx="358.47706"
     inkscape:cy="300.21513"
     inkscape:window-x="0"
     inkscape:window-y="28"
     inkscape:window-maximized="1"
     inkscape:current-layer="svg2" />
  <g
     id="g2818"
     transform="matrix(1.4908385,0,0,1.4908385,-23.480706,-5.2935547)"
     style="fill:none;stroke:#000000;stroke-width:0.5;stroke-miterlimit:4;stroke-opacity:1;stroke-dasharray:none">
    <path
       style="fill:none;stroke:#000000;stroke-width:0.5;stroke-miterlimit:4;stroke-opacity:1;stroke-dasharray:none"
       d="m 250.68159,402.25 c -1.21816,-1.22027 -3.93062,-1.90135 -8.96082,-2.25 -7.2061,-0.49946 -7.21601,-0.5042 -9.23946,-4.41346 -2.53804,-4.90343 -7.97306,-7.84982 -15.48195,-8.39297 -5.05012,-0.36529 -5.83647,-0.74198 -7.93153,-3.79953 C 207.0386,380.43257 206.20056,380 202.49242,380 c -3.78727,0 -4.38619,-0.32932 -5.50317,-3.02595 C 195.57365,373.55648 191.14026,370 188.29563,370 c -1.0426,0 -2.41059,-0.51496 -3.04,-1.14437 -0.85915,-0.85915 -1.85942,-0.84817 -4.01342,0.044 -2.64423,1.09528 -3.15427,0.91942 -6.50859,-2.24411 -4.95715,-4.67519 -5.54196,-7.65963 -2.69291,-13.74248 1.26564,-2.7022 2.89543,-4.91308 3.62175,-4.91308 0.72633,0 1.88265,-0.9 2.56961,-2 1.68274,-2.69449 2.30616,-2.52903 3.76793,1 1.63291,3.9422 4.75343,4.00575 6.10649,0.12436 0.80067,-2.2968 1.74633,-2.98148 4.69798,-3.40146 2.03254,-0.28921 4.42185,-0.81984 5.30957,-1.17918 1.21801,-0.49304 1.76394,0.0962 2.225,2.40147 0.52136,2.60683 1.05917,3.05481 3.66734,3.05481 1.68102,0 3.28799,0.60354 3.57106,1.3412 0.38905,1.01385 3.49334,1.36089 12.71861,1.42188 12.98674,0.0859 14.23669,-0.26286 19.93515,-5.56161 2.39122,-2.22349 3.0506,-2.3941 5.29705,-1.37055 3.98839,1.81723 7.8215,1.43994 9.29194,-0.9146 0.77148,-1.23534 1.91305,-1.84893 2.80389,-1.50708 0.82644,0.31713 2.8466,-0.1184 4.48924,-0.96784 3.61624,-1.87003 7.35565,-1.04564 6.34555,1.39894 -0.37718,0.91281 -0.92817,2.55966 -1.22443,3.65966 -0.29625,1.1 -1.3702,3.19447 -2.38654,4.65437 -1.01635,1.4599 -1.8479,3.0472 -1.8479,3.52732 0,0.48012 -1.39833,2.09996 -3.1074,3.59964 -2.48283,2.17864 -2.97888,3.23875 -2.468,5.27427 0.4453,1.77424 0.0226,3.33175 -1.3926,5.13085 -2.57713,3.27628 -2.58883,6.49965 -0.032,8.81355 2.11148,1.91086 2.68684,4.5 1,4.5 -1.78233,0 -1.05763,2.89879 1,4 2.94419,1.57568 2.62832,5.62549 -0.5,6.41064 -2.31806,0.5818 -2.5,1.06272 -2.5,6.60841 0,6.41677 -1.08003,7.47493 -4.31841,4.23095 l 0,4e-5 z m 20.54601,-48.91975 c -1.80205,-0.72492 -0.51705,-9.93686 1.95999,-14.05079 1.48053,-2.45891 1.86742,-4.66729 1.63594,-9.33805 C 274.48514,323.11349 275.9627,321 281.07455,321 c 3.50894,0 4.68973,-4.46136 1.98502,-7.5 -0.97911,-1.1 -2.54781,-5.15 -3.486,-9 -1.20271,-4.93547 -2.43939,-7.58987 -4.1931,-9 -1.86777,-1.50185 -2.93135,-3.99294 -4.27009,-10.0013 C 268.54033,273.96417 265.5949,270.15138 263,275 c -0.5887,1.1 -1.61703,1.98503 -2.28518,1.96673 C 259.09735,276.92243 255,273.45454 255,272.12985 c 0,-0.57726 -1.9125,-1.59349 -4.25,-2.25829 -5.77604,-1.64273 -5.97244,-1.9296 -4.40483,-6.43411 1.23917,-3.56074 1.1798,-4.33104 -0.62054,-8.05125 -1.92863,-3.9853 -2.10379,-4.0901 -5.60772,-3.35505 -1.9893,0.41731 -5.33776,1.05766 -7.44102,1.42301 l -3.82411,0.66427 0.32411,-4.30921 L 229.5,245.5 l -4.32397,-0.31111 c -3.58751,-0.25813 -4.52528,-0.76908 -5.50591,-3 -0.65006,-1.47889 -2.92976,-5.0803 -5.06599,-8.00314 -3.79402,-5.19105 -3.97435,-5.299 -7.77868,-4.65626 -2.1872,0.36953 -4.42746,0.21736 -5.11004,-0.34709 C 200.32983,228.03659 195,228.77802 195,230.11658 195,230.60246 193.88844,231 192.52986,231 c -1.83806,0 -3.05353,-1.02728 -4.75,-4.01458 -1.85174,-3.2607 -2.98212,-4.12942 -6.01963,-4.62617 -3.0898,-0.5053 -4.69743,-1.78214 -9.25,-7.34674 C 168.92374,210.62874 167,207.35614 167,205.63868 167,203.90769 166.45999,203 165.43018,203 c -2.86434,0 -10.41332,-6.04663 -12.39256,-9.92627 -1.414,-2.77165 -3.10349,-4.28305 -6.15069,-5.50229 -2.8585,-1.14375 -4.4119,-1.34006 -4.86048,-0.61424 -0.46528,0.75284 -1.59613,0.74017 -3.84287,-0.043 -3.26563,-1.1384 -4.15056,-3.54717 -2.06817,-5.62956 1.47517,-1.47517 -3.47269,-8.08517 -6.64878,-8.88232 -1.61729,-0.40591 -2.46017,-1.55429 -2.91317,-3.96901 -0.51931,-2.76816 -1.23194,-3.55106 -3.84545,-4.22467 -3.18844,-0.82179 -3.21106,-0.87254 -3.70801,-8.31915 -0.31562,-4.72952 -1.14531,-8.47444 -2.25,-10.1557 -0.9625,-1.46485 -1.75,-4.23206 -1.75,-6.14934 0,-5.59079 -1.97824,-13.25474 -3.86122,-14.95881 -0.95594,-0.86511 -3.67945,-2.25789 -6.05225,-3.09506 -2.37279,-0.83717 -6.17545,-2.67799 -8.450349,-4.0907 -2.2749,-1.41272 -6.850618,-4.26642 -10.168264,-6.34155 -3.317646,-2.07513 -7.869076,-4.06672 -10.11429,-4.42574 -3.940593,-0.63013 -4.252457,-0.47099 -8.989881,4.58734 -2.69922,2.88207 -5.818542,6.42167 -6.931826,7.86578 C 57.169746,123.35725 50.908496,126 44.145149,126 l -5.934527,0 0.746202,-3.30856 c 0.410411,-1.81971 1.554916,-4.54282 2.543343,-6.05135 2.392051,-3.65073 1.35966,-4.44326 -6.995872,-5.3705 L 27.569419,110.5 24.231922,102.52518 C 21.236424,95.367563 21.058214,94.430601 22.492814,93.381596 24.451531,91.949347 25.796239,85 24.114664,85 23.483802,85 22.218753,83.429562 21.303444,81.510138 20.388134,79.590714 18.820414,77.760389 17.819622,77.44275 16.510783,77.027341 16,75.86979 16,73.319069 l 0,-3.546157 4.40719,0.660899 c 3.864206,0.579474 4.721035,0.347055 6.954546,-1.886456 C 28.762781,67.14631 30.379545,66 30.954545,66 c 2.547222,0 0.895379,-6.28855 -3.057292,-11.639084 l -4.102748,-5.553685 3.298914,-3.403615 C 29.954867,42.451351 31.036949,42 35.253347,42 c 2.673557,0 6.886871,-0.510117 9.36292,-1.133593 3.158298,-0.795269 5.181805,-0.823811 6.779981,-0.09563 3.404845,1.551352 7.965421,-1.696849 9.479971,-6.751964 0.656857,-2.192396 2.078423,-4.45935 3.159034,-5.037676 C 65.115864,28.402808 66,27.045465 66,25.964816 c 0,-2.29463 1.727696,-2.48608 4.370922,-0.48435 1.430377,1.083233 1.730286,2.194223 1.273663,4.718197 -0.433373,2.395468 -0.0733,3.983787 1.312234,5.788449 l 1.909491,2.487111 2.381296,-2.237111 c 2.682994,-2.520542 3.84005,-2.749456 5.50115,-1.088356 0.865007,0.865007 0.802823,1.817714 -0.251751,3.857036 -1.528023,2.954871 -0.764492,8.071712 1.307515,8.762381 C 84.625885,48.041962 85,46.597189 85,43.151428 c 0,-4.377166 0.364059,-5.274472 2.86149,-7.0528 1.849111,-1.316683 3.310268,-3.640439 4.129961,-6.568094 C 93.118948,25.50351 93.57889,25 96.129961,25 98.760968,25 99,25.301212 99,28.616631 c 0,3.282062 0.208144,3.554767 2.25,2.947882 1.2375,-0.367812 3.92115,-0.927354 5.96367,-1.243427 3.30086,-0.510798 3.8467,-0.282688 4.91051,2.052118 C 112.78245,33.817942 113.6238,35 113.99385,35 c 1.86637,0 1.64409,-1.589985 -0.72216,-5.165632 l -2.61264,-3.947966 2.59556,-2.595554 c 2.37283,-2.372833 2.85423,-2.488407 5.61011,-1.346881 C 123.00696,23.659736 124,22.692275 124,16.940983 L 124,12 l 4.18555,0 c 2.90463,0 4.88487,0.656982 6.47068,2.146774 2.77385,2.605892 4.64064,1.513754 6.37017,-3.726766 C 142.0743,7.2448434 142.4574,7 146.37755,7 c 2.32235,0 4.73741,0.5149643 5.36682,1.1443651 0.85915,0.8591534 1.90615,0.8288233 4.2009,-0.1216947 2.2512,-0.9324782 3.40868,-0.9738056 4.39305,-0.1568522 1.02127,0.8475775 1.88772,0.5224752 3.67341,-1.3783054 C 167.06813,3.2341284 175,2.8113311 175,5.9017986 c 0,1.0520078 -1.45221,2.8318215 -3.25,3.9831533 l -3.25,2.0813541 2.73095,0.01685 c 2.02463,0.01249 2.88337,0.624151 3.32029,2.364963 0.32413,1.291464 2.7294,3.980148 5.34503,5.974854 4.73059,3.607593 4.82278,3.630325 17.46608,4.306231 6.99072,0.373721 12.87764,0.950101 13.08205,1.280843 0.20441,0.330743 0.14493,1.787384 -0.13217,3.23698 -0.35649,1.864855 -1.63763,3.146898 -4.38078,4.383888 C 201.78368,35.401295 201.59583,37 205.52383,37 c 1.35509,0 2.85791,0.844771 3.44099,1.934259 C 210.51407,41.829068 210.22717,43 207.96862,43 c -3.25966,0 -3.57239,2.884833 -0.61046,5.631287 1.45301,1.347308 2.64184,3.261696 2.64184,4.254194 0,0.992499 0.83543,2.560602 1.85652,3.484673 1.20349,1.089138 1.69011,2.55067 1.38342,4.154988 -0.60481,3.163877 -2.55975,3.161899 -4.63458,-0.0047 -1.44134,-2.199753 -2.11445,-2.412414 -5.96516,-1.884616 -2.38727,0.327212 -5.19542,0.153816 -6.24034,-0.385325 -2.80507,-1.447313 -4.78151,-0.489304 -2.89093,1.401274 0.82009,0.820089 1.49107,1.901348 1.49107,2.402797 0,1.318076 -9.20742,5.654015 -11.09196,5.2234 -0.87558,-0.200068 -2.13611,0.291903 -2.80119,1.093269 -1.03368,1.245504 -1.59062,1.25916 -3.83634,0.09407 -3.31467,-1.719671 -3.93855,-1.305342 -5.40511,3.589597 -1.07886,3.600907 -0.98824,4.185427 0.97244,6.27247 1.18919,1.265834 2.16216,3.236868 2.16216,4.380076 0,1.143208 0.675,2.337582 1.5,2.654164 0.99009,0.379935 1.5,1.946027 1.5,4.606989 0,3.809252 -1.14841,5.218303 -2.48734,3.051864 -1.32806,-2.148843 -4.5134,1.38689 -4.47753,4.970068 0.0511,5.102231 2.49392,15.720441 4.08522,17.757011 6.63564,8.49245 8.4802,10.25244 10.74502,10.25244 1.54533,0 3.76227,1.41593 6.03824,3.85654 2.23977,2.4018 5.48247,4.48867 8.59639,5.53229 6.62761,2.22124 8.09878,3.47289 8.96288,7.62546 0.39893,1.91714 1.76719,5.06071 3.04058,6.98571 1.49129,2.25441 2.56514,5.81324 3.01742,10 1.16369,10.77222 4.36488,17.13372 12.6092,25.0574 3.97295,3.81843 7.63495,6.9426 8.13777,6.9426 0.50282,0 2.75425,1.575 5.00318,3.5 2.24893,1.925 4.62228,3.5 5.27411,3.5 0.65183,0 2.40634,0.96059 3.89891,2.13465 2.41639,1.90073 3.13609,2.00811 6.5679,0.97992 2.62719,-0.78713 5.18299,-0.85616 8.02835,-0.21685 3.00398,0.67495 5.22163,0.56833 7.91038,-0.38032 3.34201,-1.17913 4.05839,-1.11419 6.79039,0.6156 3.93727,2.4929 3.34604,5.15565 -1.87683,8.4527 -5.59561,3.53236 -5.0436,9.4143 0.88351,9.4143 1.29126,0 3.33876,1.05694 4.55,2.34875 1.24961,1.33274 5.87913,3.56008 10.70225,5.14904 9.6697,3.18565 24.3712,10.76639 26.34528,13.58478 1.6138,2.30402 8.68321,4.91743 13.30189,4.91743 2.73991,0 3.63297,0.5311 4.62427,2.75 0.67571,1.5125 3.58289,5.11411 6.46041,8.00359 6.08419,6.10947 6.74083,8.00826 5.80179,16.77686 -0.53032,4.95207 -1.15456,6.73149 -2.64046,7.52672 -2.79867,1.4978 -7.60015,-2.20775 -9.94308,-7.67358 -1.02496,-2.39115 -2.86767,-5.70565 -4.09489,-7.36557 C 331.81096,263.25304 331.12857,263 325.71623,263 319.07281,263 314.4421,260.89759 313.58772,257.49349 313.10984,255.58945 309.35635,253 307.07427,253 c -0.96162,0 -2.68393,4.14578 -3.54198,8.52589 -0.35184,1.79607 -1.49494,3.4218 -2.81252,4 -1.7362,0.7619 -2.35788,2.10567 -2.85375,6.16836 -0.34869,2.85683 -1.6363,6.81603 -2.86136,8.79821 -2.12928,3.44525 -2.15021,3.68922 -0.47531,5.53998 1.03614,1.14492 3.72636,2.19791 6.5837,2.57694 3.50562,0.46504 4.99589,1.15849 5.43016,2.52675 0.32919,1.03719 1.85619,2.53617 3.39334,3.33106 2.564,1.3259 2.84623,2.04762 3.41732,8.73903 0.34237,4.01158 0.74031,8.39401 0.88431,9.73875 0.24357,2.2745 -0.22621,2.54138 -6.73818,3.82791 -8.98718,1.77555 -10.44768,3.46652 -10.47776,12.13119 -0.0215,6.2025 -0.14573,6.50977 -3.94547,9.76221 -2.24468,1.92136 -4.20624,4.6467 -4.58471,6.36988 -0.36382,1.65646 -1.78837,4.35097 -3.16567,5.98779 -2.20546,2.62105 -3.11983,2.96663 -7.66528,2.8971 -2.83861,-0.0434 -5.73369,-0.30928 -6.43351,-0.5908 z M 61.989766,313.48767 c -0.93272,-1.12386 -1.595095,-1.23018 -2.57864,-0.41391 C 57.482992,314.67397 56,313.31199 56,309.94098 56,308.32344 55.523442,307 54.940983,307 c -0.582459,0 -0.837152,0.35899 -0.565983,0.79775 0.880637,1.4249 -1.128876,3.51067 -2.774075,2.87935 C 49.808583,309.98932 49.255291,302 51,302 c 0.586826,0 1,-3.44999 1,-8.34996 0,-7.67935 0.239468,-8.68054 2.981656,-12.46602 C 57.95619,277.0778 58.118978,274 55.361626,274 c -2.012057,0 -2.821276,-2.74123 -1.337126,-4.52952 0.880931,-1.06146 1.05191,-3.42045 0.581033,-8.01648 -1.104558,-10.78111 -1.586258,-12.20338 -4.548701,-13.43046 -2.399498,-0.9939 -2.723499,-1.66861 -2.723499,-5.67144 0,-3.25281 0.499633,-4.85535 1.75899,-5.64183 1.576496,-0.98454 1.597188,-1.21682 0.19944,-2.23888 -2.430614,-1.77731 0.340302,-6.86955 3.965625,-7.28781 3.230414,-0.3727 3.548279,1.14616 0.742612,3.54845 -2.953679,2.52902 -2.4553,4.70155 1.39819,6.09499 2.390525,0.86443 4.637587,0.95033 7.577864,0.2897 4.793843,-1.07711 4.311722,-0.7243 6.308789,-4.61672 0.957799,-1.86682 3.793992,-4.22855 7.508567,-6.25249 l 5.969372,-3.25248 3.618609,4.00536 C 88.371626,229.20335 90,231.67947 90,232.50288 90,233.33333 90.890599,234 92,234 c 1.466667,0 2,0.66667 2,2.5 0,1.83333 -0.533333,2.5 -2,2.5 -1.1,0 -2,0.45 -2,1 0,0.55 1.089245,1 2.420545,1 2.544511,0 2.698003,0.36284 4.106742,9.70808 0.554296,3.67706 0.255379,4.68657 -2.368828,8 -3.639184,4.59498 -4.134776,7.06348 -2.02301,10.07644 1.484165,2.11753 1.44016,2.84252 -0.602021,9.91858 -1.651553,5.72254 -2.006244,8.65602 -1.416537,11.71548 0.6332,3.28511 0.449807,4.37408 -0.939962,5.58142 -0.949658,0.825 -1.569705,2.28886 -1.377883,3.25302 0.191822,0.96417 -0.359491,2.02481 -1.225139,2.35699 C 85.708258,301.94219 85,303.29083 85,304.60699 c 0,3.23535 -2.033845,3.0109 -5.5,-0.60699 -4.700571,-4.90634 -8.5,-3.51242 -8.5,3.11844 0,3.14321 -0.521028,4.04045 -3.368034,5.8 -4.022384,2.48597 -4.0492,2.48868 -5.6422,0.56923 z"
       id="path2832"
       sodipodi:nodetypes="csssssssssssssssssssssssssssssssssssssscccsssssssssssssscccccssssssssssssssssssssssssssssscccscccsssscccsscccsssssssscccsssssssssssscccscccsssssssscccsssssssssssssssssssssssssssssssssssssssssssssssssssssssssssssssssssssssssssccsssssssssssssssssssscccssssssssssssssssssc" />
  </g>
</svg>
